<svg xmlns="http://www.w3.org/2000/svg" width="22.201" height="18" viewBox="0 0 22.201 18"><g transform="translate(0)"><path d="M20.671,6.66h-5.9V5.92a2.775,2.775,0,0,0-2.988-2.965H10.366A2.8,2.8,0,0,0,7.38,5.942V6.66H1.452A1.4,1.4,0,0,0,0,8.143v2.895s6.322,2.3,11.054,2.3c5.171,0,11.145-2.323,11.145-2.323V8.143A1.426,1.426,0,0,0,20.671,6.66Zm-11.3-.8c0-1.483,1.74-1.5,1.74-1.5a1.518,1.518,0,0,1,1.711,1.528v.742H9.373Zm3.562,6.929-3.673,0V11.374h3.673Z" transform="translate(0 -2.953)" fill="#707070"/><path d="M22.2,23.15V15.763a29.38,29.38,0,0,1-11.177,2.215A30.649,30.649,0,0,1,0,15.694v7.455a1.4,1.4,0,0,0,1.428,1.484H20.7A1.387,1.387,0,0,0,22.2,23.15Zm-9.264-3.907a.917.917,0,0,1-.917.919H10.181a.918.918,0,0,1-.918-.919V18.3h3.673Z" transform="translate(0 -6.633)" fill="#707070"/></g></svg>