<svg xmlns="http://www.w3.org/2000/svg" width="18" height="18" viewBox="0 0 18 18"><rect width="18" height="18" fill="#707070" opacity="0"/><path d="M14.25,3h-9A2.25,2.25,0,0,0,3,5.25v9A2.25,2.25,0,0,0,5.25,16.5h9a2.25,2.25,0,0,0,2.25-2.25v-9A2.25,2.25,0,0,0,14.25,3Zm-9,1.5h9a.75.75,0,0,1,.75.75v6.27L12.6,9.472a2.078,2.078,0,0,0-2.64,0L4.5,14.025V5.25A.75.75,0,0,1,5.25,4.5Z" transform="translate(-0.75 -0.75)" fill="#707070"/><circle cx="1.125" cy="1.125" r="1.125" transform="translate(4.875 5.25)" fill="#707070"/></svg>