<svg xmlns="http://www.w3.org/2000/svg" width="19.103" height="16.386" viewBox="0 0 19.103 16.386"><path d="M17.709,31.446a4.9,4.9,0,0,0-7.682.537,7.079,7.079,0,0,0-.476.749,7.072,7.072,0,0,0-.476-.749,4.9,4.9,0,0,0-7.682-.537A5.525,5.525,0,0,0,0,35.18,6.782,6.782,0,0,0,1.953,39.7a42.99,42.99,0,0,0,4.888,4.434c.739.612,1.5,1.244,2.318,1.935l.024.021a.572.572,0,0,0,.737,0l.024-.021c.814-.691,1.578-1.324,2.318-1.936A42.984,42.984,0,0,0,17.15,39.7,6.782,6.782,0,0,0,19.1,35.18,5.525,5.525,0,0,0,17.709,31.446ZM11.536,43.3c-.637.527-1.293,1.07-1.985,1.654C8.86,44.374,8.2,43.831,7.567,43.3c-3.882-3.212-6.447-5.334-6.447-8.124a4.459,4.459,0,0,1,1.114-3.016,3.759,3.759,0,0,1,5.929.446,6.367,6.367,0,0,1,.857,1.654.565.565,0,0,0,1.064,0,6.367,6.367,0,0,1,.857-1.654,3.759,3.759,0,0,1,5.929-.446,4.458,4.458,0,0,1,1.114,3.016C17.983,37.969,15.418,40.092,11.536,43.3Z" transform="translate(0 -29.836)" fill="#707070"/></svg>