<svg xmlns="http://www.w3.org/2000/svg" width="20" height="19" viewBox="0 0 20 19"><g transform="translate(-2 -3)"><circle cx="1" cy="1" r="1" transform="translate(11 10)" fill="#707070"/><circle cx="1" cy="1" r="1" transform="translate(15 10)" fill="#707070"/><circle cx="1" cy="1" r="1" transform="translate(7 10)" fill="#707070"/><path d="M19,3H5A3,3,0,0,0,2,6V21a1,1,0,0,0,1.51.86L8,19.14A1,1,0,0,1,8.55,19H19a3,3,0,0,0,3-3V6A3,3,0,0,0,19,3Zm1,13a1,1,0,0,1-1,1H8.55A3,3,0,0,0,7,17.43l-3,1.8V6A1,1,0,0,1,5,5H19a1,1,0,0,1,1,1Z" fill="#707070"/></g></svg>