<svg xmlns="http://www.w3.org/2000/svg" width="21.389" height="18" viewBox="0 0 21.389 18"><path d="M12.907,9.437a3.887,3.887,0,0,1,1.809,2.887,3.136,3.136,0,1,0-1.809-2.887ZM10.852,15.86a3.137,3.137,0,1,0-3.138-3.137A3.137,3.137,0,0,0,10.852,15.86Zm1.331.214H9.521A4.021,4.021,0,0,0,5.5,20.091v3.255l.008.051.224.07a18.283,18.283,0,0,0,5.461.881,11.212,11.212,0,0,0,4.768-.9l.21-.106H16.2V20.091A4.02,4.02,0,0,0,12.183,16.074Zm5.19-3.238H14.732a3.866,3.866,0,0,1-1.193,2.693A4.773,4.773,0,0,1,16.947,20.1v1a10.809,10.809,0,0,0,4.21-.884l.21-.106h.022V16.852A4.021,4.021,0,0,0,17.373,12.836ZM5.348,12.622a3.116,3.116,0,0,0,1.668-.484A3.882,3.882,0,0,1,8.476,9.662c0-.059.009-.117.009-.176a3.137,3.137,0,1,0-3.136,3.136Zm2.817,2.906a3.868,3.868,0,0,1-1.192-2.678c-.1-.007-.195-.015-.295-.015H4.017A4.021,4.021,0,0,0,0,16.852v3.256l.008.05.224.071a18.832,18.832,0,0,0,4.523.85V20.1A4.774,4.774,0,0,1,8.165,15.529Z" transform="translate(0 -6.348)" fill="#1dbf73"/></svg>